<mxfile host="app.diagrams.net" modified="2023-10-31T15:35:53.771Z" agent="Mozilla/5.0 (X11; Linux x86_64; rv:109.0) Gecko/20100101 Firefox/114.0" version="22.0.8" etag="L95bnQb7Bf5IJaUafBS4" type="github">
  <diagram name="PÃ¡gina-1" id="aKGrR3THz801nh9npnuC">
    <mxGraphModel>
      <root>
        <mxCell id="0" />
        <mxCell id="1" parent="0" />
      </root>
    </mxGraphModel>
  </diagram>
</mxfile>
